<svg id="レイヤー_1" data-name="レイヤー 1" xmlns="http://www.w3.org/2000/svg" viewBox="0 0 104.87 73.45"><defs><style>.cls-1{fill:#172b5a;}.cls-2{fill:#e0d8d1;}</style></defs><path class="cls-1" d="M51.49,84.49V96.73H10.34V26.05H50.71V38.28H25.83V55H48.22V66.82H25.83V84.49Z" transform="translate(-7.56 -23.27)"/><path class="cls-1" d="M112.44,26.05V96.73H90.05L75.76,54.59a119.53,119.53,0,0,1-3.87-14.5h-.77c1.11,11.6,1.63,27.91,1.63,37.79V96.73h-14V26.05H81.19L95.48,68.18a122.26,122.26,0,0,1,4,14.5h.77C99.09,71,98.49,58.58,98.49,46.8V26.05Z" transform="translate(-7.56 -23.27)"/><path class="cls-2" d="M48.71,81.72V94H7.56V23.27H47.94V35.51H23.06V52.27H45.44V64.05H23.06V81.72Z" transform="translate(-7.56 -23.27)"/><path class="cls-2" d="M109.66,23.27V94H87.28L73,51.82a118.2,118.2,0,0,1-3.87-14.5h-.78C69.46,48.92,70,65.23,70,75.1V94H56V23.27H78.41L92.7,65.41a118.07,118.07,0,0,1,4,14.5h.78C96.32,68.22,95.72,55.8,95.72,44V23.27Z" transform="translate(-7.56 -23.27)"/></svg>