<svg id="レイヤー_1" data-name="レイヤー 1" xmlns="http://www.w3.org/2000/svg" viewBox="0 0 116.54 79.46"><defs><style>.cls-1{fill:#172b5a;}.cls-2{fill:#e0d8d1;}</style></defs><path class="cls-1" d="M14.29,93.19v6.14H4.68l.32-35V42.41L4.8,28.78l.51-.48,10.76.24h23l10.7-.24.51.48-.19,13.63V63.14l.31,36.19H40.53V93.19ZM40.53,38.58H14.29v16.9H40.53Zm0,26.87H14.29V83H40.53Z" transform="translate(-1.73 -20.27)"/><path class="cls-1" d="M94.14,47.83c7.39,12.68,15,22,24.13,29.34l-5.92,9.65c-.19.31-.44.63-.76.63a1.2,1.2,0,0,1-.89-.56C102.48,77.33,96.18,68.72,91,58.51l.32,17.86h1.78l8.34-.24.45.56v8.77l-.45.56-8.34-.24H91.53l.25,14H81.72l.26-14h-.64L73,86l-.45-.56V76.69l.45-.56,8.34.24h.83l.25-16.9A112.51,112.51,0,0,1,63.26,87.61a1.26,1.26,0,0,1-.83.48c-.32,0-.51-.32-.83-.72l-5.66-8c8.4-7.65,16.49-18.1,23.43-31.57H69.31l-10.57.24-.45-.56V38.34l.45-.56L69.31,38H82V24.15l.45-.56H91l.45.56V38H104.9l10.57-.24.45.56v9.17l-.45.56-10.57-.24Z" transform="translate(-1.73 -20.27)"/><path class="cls-2" d="M11.34,89.87V96H1.73l.32-35V39.08L1.86,25.45l.5-.48,10.77.24h23L46.81,25l.51.48-.19,13.63V59.81L47.45,96H37.58V89.87ZM37.58,35.26H11.34v16.9H37.58Zm0,26.87H11.34V79.66H37.58Z" transform="translate(-1.73 -20.27)"/><path class="cls-2" d="M91.19,44.51c7.39,12.67,15,22,24.13,29.33l-5.92,9.65c-.19.32-.44.64-.76.64a1.22,1.22,0,0,1-.89-.56C99.53,74,93.23,65.39,88.07,55.19l.32,17.86h1.78l8.34-.24.45.56v8.77l-.45.55-8.34-.23H88.58l.26,14H78.77l.26-14h-.64l-8.34.23-.44-.55V73.37l.44-.56,8.34.24h.83l.25-16.9A112.51,112.51,0,0,1,60.31,84.29a1.26,1.26,0,0,1-.83.48c-.32,0-.51-.32-.83-.72l-5.66-8c8.4-7.66,16.49-18.1,23.43-31.57H66.36l-10.57.24-.45-.56V35l.45-.56,10.57.24H79.09V20.83l.45-.56h8.53l.45.56V34.7H102l10.57-.24L113,35v9.17l-.45.56L102,44.51Z" transform="translate(-1.73 -20.27)"/></svg>